<svg 
          width="31.8799991607666" 
          height="29.440000534057617" fill="none" 
          xmlns="http://www.w3.org/2000/svg">
          <path d="M 1.1385713985988073 5.407347036867725 L 30.741427762167795 5.407347036867725 C 31.370274970155617 5.407347036867725 31.879999160766605 4.869391100719802 31.879999160766605 4.205714362008231 L 31.879999160766605 1.2016326748594945 C 31.879999160766605 0.5379559361479235 31.370274970155617 0 30.741427762167795 0 L 1.1385713985988073 0 C 0.5097241906109876 0 0 0.5379559361479235 0 1.2016326748594945 L 0 4.205714362008231 C 0 4.869391100719802 0.5097241906109876 5.407347036867725 1.1385713985988073 5.407347036867725 Z M 1.1385713985988073 17.42367378546267 L 30.741427762167795 17.42367378546267 C 31.370274970155617 17.42367378546267 31.879999160766605 16.885717849314748 31.879999160766605 16.222041110603175 L 31.879999160766605 13.21795942345444 C 31.879999160766605 12.55428268474287 31.370274970155617 12.016326748594945 30.741427762167795 12.016326748594945 L 1.1385713985988073 12.016326748594945 C 0.5097241906109876 12.016326748594945 0 12.55428268474287 0 13.21795942345444 L 0 16.222041110603175 C 0 16.885717849314748 0.5097241906109876 17.42367378546267 1.1385713985988073 17.42367378546267 Z M 1.1385713985988073 29.440000534057617 L 30.741427762167795 29.440000534057617 C 31.370274970155617 29.440000534057617 31.879999160766605 28.902044597909693 31.879999160766605 28.23836785919812 L 31.879999160766605 25.234286172049387 C 31.879999160766605 24.570609433337815 31.370274970155617 24.03265349718989 30.741427762167795 24.03265349718989 L 1.1385713985988073 24.03265349718989 C 0.5097241906109876 24.03265349718989 0 24.570609433337815 0 25.234286172049387 L 0 28.23836785919812 C 0 28.902044597909693 0.5097241906109876 29.440000534057617 1.1385713985988073 29.440000534057617 Z" fill="rgb(0,0,0)"/>
        </svg>